<svg width="48" height="48" viewBox="0 0 48 48" fill="none" xmlns="http://www.w3.org/2000/svg">
<path opacity="0.4" d="M21.6191 16.405L20.9648 9.00651C20.9648 7.34617 22.3241 6 24.0006 6C25.6772 6 27.0364 7.34617 27.0364 9.00651L26.3821 16.405C26.3821 17.7075 25.3159 18.7635 24.0006 18.7635C22.6832 18.7635 21.6191 17.7075 21.6191 16.405Z" fill="#5235C6"/>
<path d="M21.7397 41.2493C21.6229 41.1337 21.1294 40.7017 20.7197 40.2959C18.1531 37.9286 13.9563 31.7476 12.6719 28.5142C12.467 28.0233 12.0308 26.7819 12 26.1164C12 25.4815 12.1476 24.875 12.4384 24.2968C12.846 23.5746 13.4893 22.9986 14.2471 22.6801C14.7714 22.4772 16.3466 22.1586 16.3753 22.1586C18.0958 21.8423 20.8937 21.6699 23.9868 21.6699C26.9301 21.6699 29.6134 21.8423 31.3626 22.1019C31.3934 22.1303 33.3475 22.4488 34.0173 22.7957C35.2422 23.4306 36 24.6721 36 26.0008V26.1164C35.9714 26.9826 35.2113 28.8022 35.1849 28.8022C33.9005 31.8633 29.9064 37.8981 27.2517 40.3242C27.2517 40.3242 26.5688 41.0093 26.1436 41.306C25.5311 41.7686 24.7733 41.9999 24.0154 41.9999C23.1695 41.9999 22.383 41.7402 21.7397 41.2493Z" fill="#5235C6"/>
</svg>
