<svg width="72" height="72" viewBox="0 0 72 72" fill="none" xmlns="http://www.w3.org/2000/svg">
<path d="M3.93406 15.6783L33.5811 0.591377C35.1306 -0.197126 36.8694 -0.197125 38.4189 0.591378L68.0659 15.6783C70.4464 16.8896 72 19.7567 72 22.9382V49.0618C72 52.2433 70.4464 55.1104 68.0659 56.3217L38.4189 71.4086C36.8694 72.1971 35.1306 72.1971 33.5811 71.4086L3.93406 56.3217C1.5536 55.1104 0 52.2433 0 49.0618V22.9382C0 19.7567 1.5536 16.8896 3.93406 15.6783Z" fill="url(#paint0_linear_1129_56)"/>
<path fill-rule="evenodd" clip-rule="evenodd" d="M36.7158 9.26624C36.3205 8.91125 35.6795 8.91125 35.2842 9.26624L24.8162 18.6668C18.6396 24.2135 18.6396 33.2066 24.8162 38.7533L14.3482 29.3528C13.9529 28.9978 13.3087 28.9965 12.9391 29.3732C7.46521 34.9519 7.69633 43.4658 13.6325 48.7966L24.8162 58.8399C30.9929 64.3867 41.0071 64.3867 47.1838 58.8399L58.3675 48.7966C64.5442 43.2499 64.5442 34.2568 58.3675 28.7101L47.1838 18.6668L36.7158 9.26624Z" fill="#EAE7F8" fill-opacity="0.34"/>
<path fill-rule="evenodd" clip-rule="evenodd" d="M36.7174 29.4568C36.3214 29.1029 35.6793 29.1029 35.2833 29.4568L24.7962 38.8278C18.6083 44.3571 18.6083 53.3218 24.7962 58.8511C30.9841 64.3805 41.0166 64.3805 47.2045 58.8511C53.3924 53.3218 53.3924 44.3571 47.2045 38.8278L36.7174 29.4568Z" fill="#EAE7F8" fill-opacity="0.67"/>
<path fill-rule="evenodd" clip-rule="evenodd" d="M47.1546 58.8344L36.7136 49.4247C36.3193 49.0694 35.68 49.0694 35.2857 49.4247L24.8447 58.8344C24.9282 58.9096 25.0123 58.9838 25.0971 59.0569C31.2753 64.3856 41.0773 64.3114 47.1546 58.8344Z" fill="#EAE7F8"/>
<defs>
<linearGradient id="paint0_linear_1129_56" x1="0" y1="0" x2="82.7631" y2="56.13" gradientUnits="userSpaceOnUse">
<stop stop-color="#5235C6"/>
<stop offset="1" stop-color="#330582"/>
</linearGradient>
</defs>
</svg>
