<svg width="352" height="56" viewBox="0 0 352 56" fill="none" xmlns="http://www.w3.org/2000/svg">
<path d="M3.49694 12.1942L29.8499 0.45996C31.2272 -0.15332 32.7728 -0.15332 34.1501 0.45996L60.5031 12.1942C62.619 13.1364 64 15.3663 64 17.8408V38.1592C64 40.6337 62.619 42.8636 60.5031 43.8058L34.1501 55.54C32.7728 56.1533 31.2272 56.1533 29.8499 55.54L3.49694 43.8058C1.38098 42.8636 0 40.6337 0 38.1592V17.8408C0 15.3663 1.38098 13.1364 3.49694 12.1942Z" fill="url(#paint0_linear_1128_63)"/>
<path fill-rule="evenodd" clip-rule="evenodd" d="M32.6362 8.19722C32.2849 7.93426 31.7152 7.93426 31.3638 8.19722L22.0589 15.1606C16.5686 19.2693 16.5686 25.9308 22.0589 30.0395L12.754 23.0762C12.4026 22.8132 11.83 22.8122 11.5014 23.0913C6.63574 27.2236 6.84118 33.5303 12.1177 37.479L22.0589 44.9185C27.5492 49.0272 36.4508 49.0272 41.9411 44.9185L51.8823 37.479C57.3726 33.3703 57.3726 26.7087 51.8823 22.6L41.9411 15.1606L32.6362 8.19722Z" fill="#EAE7F8" fill-opacity="0.34"/>
<path fill-rule="evenodd" clip-rule="evenodd" d="M32.6374 23.1536C32.2854 22.8915 31.7147 22.8915 31.3626 23.1536L22.0408 30.0951C16.5404 34.1909 16.5404 40.8314 22.0408 44.9272C27.5411 49.023 36.4589 49.023 41.9593 44.9272C47.4596 40.8314 47.4596 34.1909 41.9593 30.0951L32.6374 23.1536Z" fill="#EAE7F8" fill-opacity="0.67"/>
<path fill-rule="evenodd" clip-rule="evenodd" d="M41.9155 44.9156L32.6346 37.9455C32.2841 37.6822 31.7159 37.6822 31.3654 37.9455L22.0845 44.9156C22.1586 44.9713 22.2334 45.0263 22.3088 45.0804C27.8005 49.0276 36.5134 48.9726 41.9155 44.9156Z" fill="#EAE7F8"/>
<path d="M94.2908 32.618C90.6912 32.618 88.3593 31.9919 87.6268 29.8814C87.5325 29.6097 87.7716 29.3493 88.0851 29.3493H107.425C107.425 22.2282 101.966 18.9012 93.7127 18.9012C85.6842 18.9012 80 22.0531 80 28.2403C80 34.4274 85.3309 37.5794 94.0018 37.5794C101.734 37.5794 105.626 35.2882 107.078 31.2913C107.181 31.0065 106.941 30.721 106.611 30.721H100.346C100.158 30.721 99.9883 30.8185 99.8861 30.9621C99.1717 31.9651 97.6569 32.618 94.2908 32.618ZM93.7127 23.2789C96.5553 23.2789 98.4994 23.8621 99.4761 25.425C99.6493 25.7021 99.4077 26.0222 99.057 26.0222H88.455C88.107 26.0222 87.8654 25.7065 88.0336 25.4297C88.9857 23.8633 90.9247 23.2789 93.7127 23.2789Z" fill="#2C284B"/>
<path d="M143.163 18.9012C138.988 18.9012 136.13 20.6522 133.978 23.3956C132.662 20.1853 129.579 18.9012 126.175 18.9012C122.449 18.9012 119.752 20.302 117.696 22.5784V19.9409C117.696 19.689 117.472 19.4849 117.195 19.4849H110.812C110.535 19.4849 110.31 19.689 110.31 19.9409V36.5397C110.31 36.7915 110.535 36.9957 110.812 36.9957H117.195C117.472 36.9957 117.696 36.7915 117.696 36.5397V28.3862C117.696 25.4385 120.073 24.4463 122.867 24.4463C125.853 24.4463 127.299 25.4385 127.299 28.3862V36.5397C127.299 36.7915 127.523 36.9957 127.8 36.9957H134.183C134.46 36.9957 134.685 36.7915 134.685 36.5397V28.3862C134.685 25.4385 137.061 24.4463 139.855 24.4463C142.842 24.4463 144.287 25.4385 144.287 28.3862V36.5397C144.287 36.7915 144.512 36.9957 144.789 36.9957H151.171C151.449 36.9957 151.673 36.7915 151.673 36.5397V27.3355C151.673 21.2068 147.723 18.9012 143.163 18.9012Z" fill="#2C284B"/>
<path d="M174.039 22.6076C172.08 19.8934 168.611 18.9012 165.111 18.9012C160.133 18.9012 154.578 21.1776 154.578 28.2403C154.578 35.303 160.133 37.5794 165.111 37.5794C168.611 37.5794 172.08 36.5871 174.039 33.8729V43.544C174.039 43.7958 174.263 44 174.541 44H180.923C181.2 44 181.425 43.7958 181.425 43.544V19.9409C181.425 19.689 181.2 19.4849 180.923 19.4849H174.541C174.263 19.4849 174.039 19.689 174.039 19.9409V22.6076ZM168.162 32.0343C164.244 32.0343 162.285 30.8085 162.285 28.2403C162.285 25.672 164.244 24.4463 168.162 24.4463C172.08 24.4463 174.039 25.672 174.039 28.2403C174.039 30.8085 172.08 32.0343 168.162 32.0343Z" fill="#2C284B"/>
<path d="M205.949 26.3433C205.949 30.1665 203.252 32.0343 198.531 32.0343C193.939 32.0343 192.494 30.1665 192.494 26.3433V19.9409C192.494 19.689 192.269 19.4849 191.992 19.4849H185.609C185.332 19.4849 185.107 19.689 185.107 19.9409V28.8531C185.107 35.2738 189.057 37.5794 194.902 37.5794C200.297 37.5794 203.573 35.6532 205.949 32.9098V36.5397C205.949 36.7915 206.174 36.9957 206.451 36.9957H212.834C213.111 36.9957 213.336 36.7915 213.336 36.5397V19.9409C213.336 19.689 213.111 19.4849 212.834 19.4849H206.451C206.174 19.4849 205.949 19.689 205.949 19.9409V26.3433Z" fill="#2C284B"/>
<path d="M214.621 16.6783C214.621 16.9671 214.913 17.1831 215.224 17.125L226.713 14.9778C226.946 14.9342 227.113 14.7475 227.113 14.5311V12.4562C227.113 12.1674 226.822 11.9513 226.51 12.0095L215.022 14.1567C214.788 14.2003 214.621 14.3869 214.621 14.6034V16.6783ZM217.19 36.5397C217.19 36.7915 217.415 36.9957 217.692 36.9957H224.075C224.352 36.9957 224.576 36.7915 224.576 36.5397V19.9409C224.576 19.689 224.352 19.4849 224.075 19.4849H217.692C217.415 19.4849 217.19 19.689 217.19 19.9409V36.5397Z" fill="#2C284B"/>
<path d="M261.27 18.9012C257.095 18.9012 254.237 20.6522 252.086 23.3956C250.769 20.1853 247.686 18.9012 244.282 18.9012C240.557 18.9012 237.859 20.302 235.804 22.5784V19.9409C235.804 19.689 235.579 19.4849 235.302 19.4849H228.919C228.642 19.4849 228.418 19.689 228.418 19.9409V36.5397C228.418 36.7915 228.642 36.9957 228.919 36.9957H235.302C235.579 36.9957 235.804 36.7915 235.804 36.5397V28.3862C235.804 25.4385 238.18 24.4463 240.974 24.4463C243.961 24.4463 245.406 25.4385 245.406 28.3862V36.5397C245.406 36.7915 245.631 36.9957 245.908 36.9957H252.29C252.567 36.9957 252.792 36.7915 252.792 36.5397V28.3862C252.792 25.4385 255.169 24.4463 257.963 24.4463C260.949 24.4463 262.394 25.4385 262.394 28.3862V36.5397C262.394 36.7915 262.619 36.9957 262.896 36.9957H269.279C269.556 36.9957 269.781 36.7915 269.781 36.5397V27.3355C269.781 21.2068 265.83 18.9012 261.27 18.9012Z" fill="#2C284B"/>
<path d="M273.641 17.2778C273.641 17.5296 273.865 17.7338 274.143 17.7338H280.525C280.802 17.7338 281.027 17.5296 281.027 17.2778V14.1039C281.027 13.8521 280.802 13.6479 280.525 13.6479H274.143C273.865 13.6479 273.641 13.8521 273.641 14.1039V17.2778ZM273.641 36.5397C273.641 36.7915 273.865 36.9957 274.143 36.9957H280.525C280.802 36.9957 281.027 36.7915 281.027 36.5397V19.9409C281.027 19.689 280.802 19.4849 280.525 19.4849H274.143C273.865 19.4849 273.641 19.689 273.641 19.9409V36.5397Z" fill="#2C284B"/>
<path d="M284.868 36.5397C284.868 36.7915 285.093 36.9957 285.37 36.9957H292.074C292.351 36.9957 292.576 36.7915 292.576 36.5397V32.1984C292.576 31.9466 292.351 31.7424 292.074 31.7424H285.37C285.093 31.7424 284.868 31.9466 284.868 32.1984V36.5397Z" fill="#2C284B"/>
<path d="M295.171 28.2403C295.171 34.4274 300.084 37.5794 308.916 37.5794C316.575 37.5794 321.3 35.2392 322.484 30.3748C322.551 30.0995 322.314 29.8454 322.004 29.8454H315.398C315.189 29.8454 315.004 29.9654 314.912 30.1362C314.191 31.4617 312.393 32.3261 308.916 32.3261C304.773 32.3261 302.557 31.1004 302.557 28.2403C302.557 25.3802 304.773 24.1544 308.916 24.1544C312.393 24.1544 314.191 25.0189 314.912 26.3444C315.004 26.5151 315.189 26.6351 315.398 26.6351H322.004C322.314 26.6351 322.551 26.381 322.484 26.1057C321.3 21.2414 316.575 18.9012 308.916 18.9012C300.084 18.9012 295.171 22.0531 295.171 28.2403Z" fill="#2C284B"/>
<path d="M344.614 22.6076C342.655 19.8934 339.186 18.9012 335.686 18.9012C330.708 18.9012 325.153 21.1776 325.153 28.2403C325.153 35.303 330.708 37.5794 335.686 37.5794C339.186 37.5794 342.655 36.5871 344.614 33.8729V36.7148C344.614 36.9666 344.838 37.1708 345.116 37.1708H351.498C351.775 37.1708 352 36.9666 352 36.7148V20.116C352 19.8641 351.775 19.66 351.498 19.66H345.116C344.838 19.66 344.614 19.8641 344.614 20.116V22.6076ZM338.737 32.0343C334.819 32.0343 332.86 30.8085 332.86 28.2403C332.86 25.672 334.819 24.4463 338.737 24.4463C342.655 24.4463 344.614 25.672 344.614 28.2403C344.614 30.8085 342.655 32.0343 338.737 32.0343Z" fill="#2C284B"/>
<defs>
<linearGradient id="paint0_linear_1128_63" x1="0" y1="0" x2="67.0962" y2="52.0054" gradientUnits="userSpaceOnUse">
<stop stop-color="#5235C6"/>
<stop offset="1" stop-color="#330582"/>
</linearGradient>
</defs>
</svg>
